<svg xmlns="http://www.w3.org/2000/svg" xmlns:xlink="http://www.w3.org/1999/xlink" xmlns:inkscape="http://www.inkscape.org/namespaces/inkscape" version="1.1" width="283.966" height="170.493" viewBox="0 0 283.966 170.493">
<defs>
<clipPath id="clip_1">
<path transform="matrix(1,0,0,-1,0,170.493)" d="M0 170.493H283.966V0H0Z"/>
</clipPath>
</defs>
<g clip-path="url(#clip_1)">
<path transform="matrix(1,0,0,-1,140.2419,58.659799)" d="M0 0C9.068 0 17.155-4.314 22.323-10.993L21.891-9.557 20.951-6.821 19.883-4.053 18.696-1.261 17.388 1.545 15.967 4.366 14.437 7.189 12.801 10.011 11.065 12.829 9.23 15.633 7.301 18.423 5.285 21.186 4.597 22.081C3.073 22.22 1.531 22.294-.026 22.294-27.886 22.294-50.607-.428-50.607-28.29-50.607-56.147-27.886-78.868-.026-78.868 26.664-78.868 48.635-58.011 50.431-31.764 35.873-45.16 16.275-58.779-3.436-56.225-17.369-54.525-28.22-42.599-28.22-28.22-28.22-12.676-15.544 0 0 0" fill="#212831" fill-rule="evenodd"/>
<path transform="matrix(1,0,0,-1,146.7651,32.965196)" d="M0 0C25.281-3.051 45.301-23.585 47.566-49.09L40.036-55.945 38.658-57.173 37.256-58.393 35.829-59.603 34.378-60.803 32.904-61.989 31.411-63.158 29.896-64.3 28.364-65.423 26.812-66.52 25.241-67.583 23.659-68.616 22.061-69.614 20.447-70.572 18.828-71.488 17.191-72.362 15.548-73.188 13.895-73.962 12.773-74.452C30.366-58.007 20.759-26.59 0 0" fill="#212831" fill-rule="evenodd"/>
</g>
</svg>
